# xmcd
#
# Track frame offsets: 
#        150
#        17759
#        32885
#        53991
#        68881
#        85586
#        102789
#        116041
#        127108
#        139625
#        153585
#        170871
#        184300
#        197838
#        208757
#        223975
#
# Disc length: 3254 seconds
#
# Revision: 0
# Processed by: cddbd v1.5.2PL0 Copyright (c) Steve Scherf et al.
# Submitted via: ExactAudioCopy v0.99pb5
#
DISCID=f70cb410
DTITLE=Various Artist - Billboard #1 Hits Of The '70s [CD1]
DYEAR=2009
DGENRE=Pop
TTITLE0=Guess Who - American Woman
TTITLE1=LaBelle - Lady Marmalade
TTITLE2=Gladys Knight and The Pips - Midnight Train To Georgia
TTITLE3=Wild Cherry - Play That Funky Music
TTITLE4=Emotions - Best Of My Love
TTITLE5=Bill Withers - Lean On Me
TTITLE6=Bay City Rollers - Saturday Night
TTITLE7=Hall and Oates - Rich Girl
TTITLE8=Neil Sedaka - Laughter In The Rain
TTITLE9=Sly and The Family Stone - Family Affair
TTITLE10=Silver Convention - Fly Robin Fly
TTITLE11=B.J. Thomas - Raindrops Keep Fallin' On My Head
TTITLE12=O'Jays - Love Train
TTITLE13=Melanie - Brand New Key
TTITLE14=John Denver - Sunshine On My Shoulders
TTITLE15=Janis Joplin - Me and Bobby McGee
EXTD=
EXTT0=
EXTT1=
EXTT2=
EXTT3=
EXTT4=
EXTT5=
EXTT6=
EXTT7=
EXTT8=
EXTT9=
EXTT10=
EXTT11=
EXTT12=
EXTT13=
EXTT14=
EXTT15=
PLAYORDER=
